<?xml version="1.0" encoding="utf-8"?>
<!-- Generator: Adobe Illustrator 25.4.1, SVG Export Plug-In . SVG Version: 6.00 Build 0)  -->
<svg version="1.1" id="레이어_1" xmlns="http://www.w3.org/2000/svg" xmlns:xlink="http://www.w3.org/1999/xlink" x="0px"
	 y="0px" viewBox="0 0 1936 504" style="enable-background:new 0 0 1936 504;" xml:space="preserve">
<style type="text/css">
	.st0{fill:url(#SVGID_1_);}
	.st1{fill:#F96C1E;}
	.st2{fill:url(#SVGID_00000127008762909427631100000014206476168841614486_);}
	.st3{fill:#FFFFFF;}
	.st4{fill:#221D1E;}
	.st5{fill:url(#SVGID_00000153707066351933670890000009706427774324582043_);}
	.st6{fill:url(#SVGID_00000037686161505104798380000017797990288289041081_);}
	.st7{fill:#E8C018;}
	.st8{fill:url(#SVGID_00000157276078420790050740000016710416566595145397_);}
	.st9{fill:url(#SVGID_00000108311331430014562870000014776063505978440621_);}
</style>
<g>
	<g>
		<linearGradient id="SVGID_1_" gradientUnits="userSpaceOnUse" x1="274.3696" y1="333.0752" x2="274.3696" y2="200.882">
			<stop  offset="0.15" style="stop-color:#9D411E"/>
			<stop  offset="0.9" style="stop-color:#C65326"/>
		</linearGradient>
		<path class="st0" d="M542.9,255.7c0,36.5-120.2,77.3-268.5,77.3S5.8,292.2,5.8,255.7s120.2-54.9,268.5-54.9
			S542.9,219.2,542.9,255.7z"/>
		<path class="st1" d="M275.5,196.7C40.1,196.7,0.7,237.8,0.7,258h15.5c0-21.7,89.2-47.1,259.4-47.1s259.4,25.4,259.4,47.1h15.5
			C550.4,237.8,511,196.7,275.5,196.7z"/>
		<g>
			<g>
				
					<linearGradient id="SVGID_00000123403680529351933340000009005661030846835592_" gradientUnits="userSpaceOnUse" x1="275.8967" y1="337.8397" x2="275.8967" y2="174.5525">
					<stop  offset="0" style="stop-color:#DBB100"/>
					<stop  offset="0.6" style="stop-color:#F7D41A"/>
				</linearGradient>
				<path style="fill:url(#SVGID_00000123403680529351933340000009005661030846835592_);" d="M423.2,18.9v333.9
					c0,10.3-8.3,18.5-18.5,18.5H147.2c-10.3,0-18.5-8.3-18.5-18.5V95.3c0-2.7,0.6-5.3,1.7-7.7c0.8-1.9,1.9-3.5,3.3-5
					c0.1-0.2,0.2-0.3,0.4-0.4l76.4-76.4c1.6-1.6,3.4-2.9,5.5-3.8c2.4-1.1,5-1.7,7.7-1.7h181.1C414.9,0.3,423.2,8.6,423.2,18.9z"/>
			</g>
			<circle class="st3" cx="344" cy="99" r="46.4"/>
			<circle class="st4" cx="362.6" cy="99" r="18.6"/>
			
				<linearGradient id="SVGID_00000178907880596205165590000006605309535168279228_" gradientUnits="userSpaceOnUse" x1="130.4432" y1="341.0522" x2="130.4432" y2="133.4839">
				<stop  offset="0" style="stop-color:#DBB100"/>
				<stop  offset="0.6" style="stop-color:#F7D41A"/>
			</linearGradient>
			<path style="fill:url(#SVGID_00000178907880596205165590000006605309535168279228_);" d="M160.4,262.9c33.3,0,60.4-27,60.4-60.4
				c0-33.3-27-60.4-60.4-60.4h-111c-5.4,0-9.7,4.6-9.3,10C45.2,214.2,97.1,262.9,160.4,262.9z"/>
			
				<linearGradient id="SVGID_00000021840971901104441270000010404276415173940883_" gradientUnits="userSpaceOnUse" x1="463.7643" y1="239.4261" x2="463.7643" y2="122.4691">
				<stop  offset="0" style="stop-color:#E08216"/>
				<stop  offset="0.8" style="stop-color:#F79F1A"/>
			</linearGradient>
			<path style="fill:url(#SVGID_00000021840971901104441270000010404276415173940883_);" d="M498.6,90.9l-2,1.4
				c-11.8,8.3-25.8,12.8-40.3,12.8h-33.2c-4.2,0-7.7,2.9-8.6,7l-14,69.8c-1.1,5.4,3.1,10.4,8.6,10.4h44.3c19.8,0,38-11.2,46.8-29
				l24.8-49.7c6-12-2.7-26.1-16.1-26.1h0C505.3,87.6,501.7,88.8,498.6,90.9z"/>
			<path class="st7" d="M215.9,94.6V2c0,0,0,0,0,0c-2,0.9-3.9,2.2-5.5,3.8L134,82.2c-0.2,0.2-0.3,0.3-0.4,0.4
				c-1.4,1.5-2.5,3.2-3.3,5c-1.1,2.4-1.7,5-1.7,7.7v1.6c0-2.6,2.1-4.7,4.7-4.7c5.6,0,68.2,11.7,73.3,11.7S215.9,99.8,215.9,94.6z"/>
			
				<linearGradient id="SVGID_00000034073679652575185540000017571806407527763591_" gradientUnits="userSpaceOnUse" x1="176.8837" y1="148.0499" x2="176.8837" y2="21.5535">
				<stop  offset="0" style="stop-color:#CE8415"/>
				<stop  offset="0.8" style="stop-color:#F79F1A"/>
			</linearGradient>
			<path style="fill:url(#SVGID_00000034073679652575185540000017571806407527763591_);" d="M225.2,0.3h-1.6c-2.7,0-5.3,0.6-7.7,1.7
				v0c-2,0.9-3.9,2.2-5.4,3.8l-76.8,76.8c-1.4,1.5-2.5,3.2-3.3,5h0c-1.1,2.4-1.7,5-1.7,7.7v1.6c0-5.1,4.1-9.3,9.3-9.3h59.5
				c10.2,0,18.5-8.3,18.5-18.5V9.4C216,4.4,220.1,0.3,225.2,0.3z"/>
		</g>
		
			<linearGradient id="SVGID_00000074442282672813372620000013111901459676688058_" gradientUnits="userSpaceOnUse" x1="275.5404" y1="502.9825" x2="275.5404" y2="257.9762">
			<stop  offset="0" style="stop-color:#D65B1E"/>
			<stop  offset="0.8" style="stop-color:#F96C1E"/>
		</linearGradient>
		<path style="fill:url(#SVGID_00000074442282672813372620000013111901459676688058_);" d="M550.4,258h-15.5
			c0,43.8-127.4,68.2-259.4,68.2S16.2,301.8,16.2,258H0.7c0,0,0,2.7,0,6.9c0,34.9,13.6,124.3,133,185c0,0,0,3.2,0,11.3
			c0,20.6,50.9,41.8,141.9,41.8c91,0,141.9-21.2,141.9-41.8c0-8.1,0-11.3,0-11.3c119.3-60.8,133-150.1,133-185
			C550.4,260.3,550.4,258,550.4,258z"/>
		<path class="st1" d="M550.4,258c0,66.9-168.5,83.9-274.9,83.9S0.7,324.8,0.7,258h15.5c0,43.8,127.4,68.2,259.4,68.2
			s259.4-24.4,259.4-68.2H550.4z"/>
	</g>
	<g>
		<path class="st4" d="M739.7,131.2c-53.2,0-90.1,0-96.7,0c-6.6,0-10.7,4.3-10.7,10.7c0,1.6,0,217.6,0,219.2
			c0,6.4,4.1,10.7,10.7,10.7c6.6,0,43.5,0,96.7,0c53.2,0,79.8-42.9,79.8-79.8c0-13.4,0-67.7,0-81.1
			C819.5,174.1,792.9,131.2,739.7,131.2z M766.1,286.3c0,23.9-15.7,37.4-39.8,37.4s-40.5,0-40.5,0V179.3c0,0,16.3,0,40.5,0
			s39.8,13.6,39.8,37.4C766.1,226.7,766.1,276.4,766.1,286.3z"/>
		<path class="st4" d="M925,196.5c-68.1,0-81.8,39.7-81.8,63.1c0,14.2,0,39.3,0,53.5c0,23.4,13.8,63.1,81.8,63.1
			c68.1,0,81.8-39.7,81.8-63.1c0-14.2,0-39.3,0-53.5C1006.8,236.2,993,196.5,925,196.5z M958.7,303.6c0,12.6-2,29.8-33.7,29.8
			c-31.7,0-33.7-17.2-33.7-29.8c0-12.6,0-22,0-34.6c0-12.6,2-29.8,33.7-29.8c31.7,0,33.7,17.2,33.7,29.8
			C958.7,281.6,958.7,291,958.7,303.6z"/>
		<path class="st4" d="M1490,196.5c-68.1,0-81.8,39.7-81.8,63.1c0,14.2,0,39.3,0,53.5c0,23.4,13.8,63.1,81.8,63.1
			c68.1,0,81.8-39.7,81.8-63.1c0-14.2,0-39.3,0-53.5C1571.8,236.2,1558,196.5,1490,196.5z M1523.7,303.6c0,12.6-2,29.8-33.7,29.8
			c-31.7,0-33.7-17.2-33.7-29.8c0-12.6,0-22,0-34.6c0-12.6,2-29.8,33.7-29.8c31.7,0,33.7,17.2,33.7,29.8
			C1523.7,281.6,1523.7,291,1523.7,303.6z"/>
		<path class="st4" d="M1853.2,196.5h-67.9c-2.4,0-4.3,1.9-4.3,4.3v239.6c0,2.4,1.9,4.3,4.3,4.3h39.6c2.4,0,4.3-1.9,4.3-4.3v-64.3
			l24.1,0.1c68,0,81.8-39.8,81.8-63.1v-53.5C1935.1,236.2,1921.2,196.5,1853.2,196.5z M1886.9,306.4c0,12.6-2,26.9-33.7,26.9
			l-24.1-0.1v-94h24.1l0,0c31.6,0,33.7,15.7,33.7,28.3V306.4z"/>
		<path class="st4" d="M1078.6,269v34.7c0,12.6,2,29.8,33.7,29.8c28.5,0,33-13.9,33.6-25.8c0.2-2.2,2.1-4,4.3-4h34.8
			c2.4,0,4.3,1.9,4.3,4.3v5.3c0,23.4-8.9,63.1-77,63.1c-68,0-81.8-39.8-81.8-63.1v-53.6c0-23.4,13.8-63.1,81.8-63.1
			c68.1,0,77,39.8,77,63.1v5.3c0,2.4-1.8,4.2-4.2,4.3h-0.2l-34.8-0.1c-2.2,0-4.1-1.7-4.3-3.9c-0.6-11.9-5.1-25.8-33.6-25.8
			C1080.7,239.2,1078.6,256.4,1078.6,269z"/>
		<path class="st4" d="M1749.5,205v149.1c0,3.1-1.7,6-4.4,7.5c-9,4.8-31.6,14.5-67.8,14.5c-67.7,0-81.8-39.8-81.8-63.1V205
			c0-2.4,1.9-4.3,4.3-4.3h39.6c2.4,0,4.3,1.9,4.3,4.3v98.6c0,12.6,2,29.8,33.7,29.8c16.7,0,24.1-4.2,24.1-4.2V205
			c0-2.4,1.9-4.3,4.3-4.3h39.6C1747.6,200.7,1749.5,202.7,1749.5,205z"/>
		<path class="st4" d="M1384.5,302.1c0,40.9-38.2,74.1-85.6,74.1c-47.2,0-85.6-33.2-85.6-74.1c0-2.3,2-4.3,4.3-4.3h45.1
			c2.3,0,4.2,1.9,4.3,4.1c0,0.1,0,0.1,0,0.2c0.1,14.3,14.4,25.8,31.9,25.8c17.6,0,32-11.6,32-25.9c0-14.3-15-21.1-32-25.9
			c-59.4-16.6-80.2-38.6-80.2-79.9c0-38.3,35.9-69.4,80.2-69.4c44.4,0,80.2,31.1,80.2,69.4c0,2.4-1.9,4.3-4.3,4.3H1330
			c-2.3,0-4.3-1.9-4.3-4.3c0-11.8-11.9-21.3-26.7-21.3c-14.7,0-26.7,9.5-26.7,21.3c0,11.8,5.3,22.3,26.7,29.3
			C1344.9,240.7,1384.5,248.6,1384.5,302.1z"/>
	</g>
</g>
</svg>
