<svg width="376" height="280" viewBox="0 0 376 280" xmlns="http://www.w3.org/2000/svg" xmlns:xlink="http://www.w3.org/1999/xlink">
    <defs>
        <path id="a" d="M0 280h375.73V0H0z"/>
    </defs>
    <g fill="none" fill-rule="evenodd">
        <path fill="#ECECEC" d="M0 246.25h375.728v-.188H0zM313.192 258.345h24.89v-.188h-24.89zM242.366 260.385h6.532v-.188h-6.532zM298.018 251.367h14.422v-.188h-14.422zM39.421 252.63h32.457v-.188H39.421zM78.57 252.63h4.759v-.188h-4.76zM98.795 255.802h70.393v-.187H98.795z"/>
        <g>
            <path d="M33 .188A4.106 4.106 0 0 0 28.9 4.289v203.97A4.106 4.106 0 0 0 33 212.36h145.105a4.106 4.106 0 0 0 4.1-4.102V4.29a4.106 4.106 0 0 0-4.1-4.101H33zm145.106 212.36H33a4.294 4.294 0 0 1-4.29-4.29V4.29A4.294 4.294 0 0 1 33 0h145.105a4.294 4.294 0 0 1 4.288 4.29v203.968a4.294 4.294 0 0 1-4.288 4.29zM195.538.188a4.106 4.106 0 0 0-4.1 4.101v203.97a4.106 4.106 0 0 0 4.1 4.101h145.106a4.106 4.106 0 0 0 4.101-4.102V4.29a4.106 4.106 0 0 0-4.1-4.101H195.537zm145.106 212.36H195.538a4.294 4.294 0 0 1-4.288-4.29V4.29A4.294 4.294 0 0 1 195.538 0h145.106a4.294 4.294 0 0 1 4.29 4.29v203.968a4.294 4.294 0 0 1-4.29 4.29z" fill="#ECECEC"/>
            <mask id="b" fill="#fff">
                <use xlink:href="#a"/>
            </mask>
            <path fill="#E7E7E7" mask="url(#b)" d="M217.69 89.503h103.537V21.702H217.69z"/>
            <path fill="#F0F0F0" mask="url(#b)" d="M214.531 89.503h105.22V21.702H214.53z"/>
            <path fill="#E7E7E7" mask="url(#b)" d="M217.69 102.81h103.537V89.503H217.69z"/>
            <path fill="#F0F0F0" mask="url(#b)" d="M209.268 102.81h105.22V89.503h-105.22z"/>
            <path fill="#FAFAFA" mask="url(#b)" d="M218.953 85.08h96.375V26.124h-96.375z"/>
            <path fill="#FFF" mask="url(#b)" d="m293.596 85.081-12.31-58.956H262.08l12.31 58.956z"/>
            <path d="M313.28 80.679a.316.316 0 0 0 .316-.316V29.002a.316.316 0 0 0-.631 0v51.36c0 .175.14.317.316.317" fill="#F0F0F0" mask="url(#b)"/>
            <path fill="#FFF" mask="url(#b)" d="m270.262 85.081-12.31-58.956h-7.488l12.31 58.956z"/>
            <path fill="#E7E7E7" mask="url(#b)" d="M218.954 85.08h.562V26.124h-.562z"/>
            <path fill="#ECECEC" mask="url(#b)" d="M213.485 32.793h103.537l.407-4.95H213.893zM213.485 40.91h103.537l.407-4.95H213.893zM213.485 49.027h103.537l.407-4.949H213.893zM213.485 57.145h103.537l.407-4.95H213.893zM213.485 65.262h103.537l.407-4.95H213.893zM213.485 73.38h103.537l.407-4.95H213.893z"/>
            <path fill="#E7E7E7" mask="url(#b)" d="M284.651 201.034h21.71v-4.28h-21.71zM243.703 246.061h4.008v-98.49h-4.008z"/>
            <path fill="#F5F5F5" mask="url(#b)" d="M229.823 201.034h54.829v-4.28h-54.829z"/>
            <path fill="#E7E7E7" mask="url(#b)" d="M284.651 224.454h21.71v-4.28h-21.71z"/>
            <path fill="#F5F5F5" mask="url(#b)" d="M229.823 224.454h54.829v-4.28h-54.829z"/>
            <path fill="#E7E7E7" mask="url(#b)" d="M284.651 154.192h21.71v-4.28h-21.71z"/>
            <path fill="#F5F5F5" mask="url(#b)" d="M229.823 154.192h54.829v-4.28h-54.829z"/>
            <path fill="#E7E7E7" mask="url(#b)" d="M284.651 177.614h21.71v-4.28h-21.71z"/>
            <path fill="#F5F5F5" mask="url(#b)" d="M229.823 177.614h54.829v-4.28h-54.829z"/>
            <path fill="#E7E7E7" mask="url(#b)" d="M298.532 246.061h4.008v-98.49h-4.008z"/>
            <path fill="#F5F5F5" mask="url(#b)" d="M280.644 246.061h4.007v-98.49h-4.007zM229.823 246.061h4.007v-98.49h-4.007z"/>
            <path fill="#E7E7E7" mask="url(#b)" d="M49.125 246.062h41.013v-79.573H49.125z"/>
            <path fill="#FAFAFA" mask="url(#b)" d="M60.077 246.062H49.125v-10.984H71.56z"/>
            <path fill="#E7E7E7" mask="url(#b)" d="M160.95 246.062h41.013v-79.573H160.95z"/>
            <path fill="#FAFAFA" mask="url(#b)" d="M49.125 242.282h121.382V166.49H49.125z"/>
            <path fill="#FAFAFA" mask="url(#b)" d="M159.556 246.062h10.952v-10.984h-22.435z"/>
            <path fill="#F0F0F0" mask="url(#b)" d="M57.622 213.7h104.39v-18.968H57.622zM57.622 236.72h104.39v-18.967H57.622z"/>
            <path d="M76.964 196.76h65.705a2.94 2.94 0 0 0 2.94-2.94v-.731H74.024v.73a2.94 2.94 0 0 0 2.94 2.94" fill="#FAFAFA" mask="url(#b)"/>
            <path fill="#F0F0F0" mask="url(#b)" d="M57.622 190.678h104.39V171.71H57.622z"/>
            <path d="M76.964 173.738h65.705a2.94 2.94 0 0 0 2.94-2.94v-.73H74.024v.73a2.94 2.94 0 0 0 2.94 2.94M76.964 219.781h65.705a2.94 2.94 0 0 0 2.94-2.94v-.73H74.024v.73a2.94 2.94 0 0 0 2.94 2.94" fill="#FAFAFA" mask="url(#b)"/>
            <path d="M333.564 271.49c0 4.7-65.232 8.51-145.7 8.51-80.467 0-145.7-3.81-145.7-8.51 0-4.698 65.233-8.508 145.7-8.508 80.468 0 145.7 3.81 145.7 8.509" fill="#F5F5F5" mask="url(#b)"/>
            <path fill="#FC9C14" mask="url(#b)" d="m78.488 124.682-.998-13.858.75-.054.998 13.858zM79.38 137.052l-.377-5.214.75-.053.375 5.213zM253.775 195.536H92.845c-3.64 0-6.833-2.979-7.095-6.619L77.844 79.108c-.263-3.64 2.5-6.618 6.14-6.618h160.931c3.64 0 6.833 2.978 7.095 6.618l7.907 109.81c.263 3.64-2.502 6.618-6.142 6.618"/>
            <path d="M254.393 195.536H93.462c-3.64 0-6.833-2.979-7.095-6.619L78.46 79.108c-.263-3.64 2.502-6.618 6.142-6.618h160.93c3.64 0 6.833 2.978 7.095 6.618l7.907 109.81c.262 3.64-2.501 6.618-6.141 6.618" fill="#007CFF" mask="url(#b)"/>
            <path d="M254.393 195.536H93.462c-3.64 0-6.833-2.979-7.095-6.619L78.46 79.108c-.263-3.64 2.502-6.618 6.142-6.618h160.93c3.64 0 6.833 2.978 7.095 6.618l7.907 109.81c.262 3.64-2.501 6.618-6.141 6.618" fill="#FFC057" mask="url(#b)"/>
            <path d="M245.77 75.799H84.84c-.182 0-.362.007-.54.022-4.113.339-3.273 6.596.88 6.596h161.204c4.152 0 4.091-6.257-.07-6.596a6.632 6.632 0 0 0-.544-.022" fill="#FC9C14" mask="url(#b)"/>
            <path d="M89.031 79.107c.06.839-.57 1.518-1.408 1.518a1.658 1.658 0 0 1-1.627-1.518 1.393 1.393 0 0 1 1.409-1.516c.837 0 1.566.679 1.626 1.516M94.192 79.107c.06.839-.57 1.518-1.408 1.518a1.657 1.657 0 0 1-1.626-1.518 1.393 1.393 0 0 1 1.408-1.516c.837 0 1.566.679 1.626 1.516M99.353 79.107c.06.839-.57 1.518-1.408 1.518a1.657 1.657 0 0 1-1.627-1.518 1.393 1.393 0 0 1 1.409-1.516c.837 0 1.566.679 1.626 1.516" fill="#FAFAFA" mask="url(#b)"/>
            <path d="M250.126 184.576H96.15c-1.325 0-2.477-1.074-2.572-2.399l-6.503-90.305c-.095-1.325.902-2.399 2.227-2.399h153.976c1.324 0 2.476 1.074 2.572 2.4l6.503 90.304c.095 1.325-.902 2.4-2.227 2.4" fill="#FFF" mask="url(#b)"/>
            <path fill="#FFF" mask="url(#b)" d="m185.257 150.176-2.506-34.807-7.596-4.571h-20.893l2.835 39.378z"/>
            <path d="M157.436 149.811h27.43l-2.466-34.227-7.346-4.423h-20.4l2.782 38.65zm27.821.729h-28.16a.365.365 0 0 1-.363-.338l-2.836-39.379a.367.367 0 0 1 .364-.39h20.893c.067 0 .132.018.188.053l7.595 4.57a.366.366 0 0 1 .176.287l2.506 34.806a.365.365 0 0 1-.363.39z" fill="#FC9C14" mask="url(#b)"/>
            <path fill="#FC9C14" mask="url(#b)" d="m182.75 115.369-7.594-4.571 2.788 6.056z"/>
            <path d="m175.98 111.719 2.161 4.692 3.724-1.15-5.884-3.542zm1.964 5.5a.365.365 0 0 1-.331-.214l-2.789-6.056a.364.364 0 0 1 .52-.463l7.594 4.571a.365.365 0 0 1-.08.66l-4.806 1.484a.374.374 0 0 1-.108.017zM166.049 128.54a1.46 1.46 0 0 1-1.476 1.59 1.737 1.737 0 0 1-1.706-1.59 1.461 1.461 0 0 1 1.477-1.592c.878 0 1.641.713 1.705 1.591M176.37 128.54a1.46 1.46 0 0 1-1.475 1.59 1.737 1.737 0 0 1-1.706-1.59 1.46 1.46 0 0 1 1.477-1.592c.878 0 1.641.713 1.705 1.591M179.282 138.857a.364.364 0 0 1-.362-.338c-.185-2.558-4.196-4.64-8.942-4.64-3.146 0-5.969.935-7.37 2.441-.623.67-.91 1.391-.856 2.146a.365.365 0 1 1-.727.053c-.068-.952.295-1.883 1.05-2.695 1.534-1.649 4.562-2.672 7.903-2.672 5.206 0 9.453 2.334 9.668 5.314a.364.364 0 0 1-.337.39h-.027M160.186 125.316a.364.364 0 0 1-.267-.612l1.596-1.719a.364.364 0 0 1 .534.495l-1.596 1.72a.362.362 0 0 1-.267.116M178.535 125.316a.366.366 0 0 1-.249-.097l-1.844-1.72a.364.364 0 0 1 .497-.533l1.844 1.72a.364.364 0 0 1-.248.63M151.987 157.957h1.699l2.45 3.256-.234-3.256h1.715l.424 5.886h-1.715l-2.437-3.232.233 3.232h-1.71zM160.628 160.912c.042.594.184 1.021.423 1.28.24.26.55.39.93.39.39 0 .684-.128.88-.381.195-.255.27-.712.222-1.37-.04-.553-.18-.959-.422-1.214-.243-.256-.554-.383-.938-.383-.366 0-.652.13-.855.389-.203.26-.283.689-.24 1.289m-1.82-.008c-.069-.962.145-1.71.642-2.245.496-.535 1.223-.803 2.179-.803.979 0 1.753.263 2.32.79.569.525.887 1.262.955 2.21.05.687-.026 1.251-.226 1.692-.2.44-.509.783-.93 1.027-.42.245-.956.368-1.61.368-.663 0-1.22-.106-1.67-.317-.45-.211-.827-.546-1.13-1.004-.303-.457-.48-1.03-.53-1.718M170.356 159.29l.231 3.215h.447c.38 0 .647-.042.801-.125.154-.085.27-.232.346-.442.076-.21.096-.551.062-1.023-.045-.623-.177-1.05-.397-1.28-.22-.23-.566-.345-1.037-.345h-.453zm-1.915-1.333h2.702c.533 0 .968.072 1.306.217.339.144.625.352.859.622.233.27.41.585.533.943.122.36.198.74.227 1.141.045.628.009 1.117-.11 1.463a2.19 2.19 0 0 1-.533.871c-.237.235-.5.39-.785.468-.392.107-.749.16-1.073.16h-2.702l-.424-5.885zM177.963 161.598l-.802-2.116-.49 2.116h1.292zm.468 1.273h-2.064l-.217.972h-1.857l1.788-5.886h1.984l2.636 5.886h-1.905l-.365-.972zM179.876 157.957h5.528l.105 1.453h-1.855l.32 4.433h-1.82l-.319-4.433h-1.854zM189.173 161.598l-.802-2.116-.49 2.116h1.292zm.469 1.273h-2.064l-.218.972h-1.857l1.788-5.886h1.984l2.636 5.886h-1.904l-.365-.972z" fill="#FC9C14" mask="url(#b)"/>
            <path d="M265.782 88.768a72.345 72.345 0 0 0 2.212-1.178 58.358 58.358 0 0 0 2.242-1.296c1.473-.906 2.956-1.802 4.365-2.797 2.842-1.958 5.504-4.13 7.9-6.502.314-.288.58-.606.87-.909l.429-.46.215-.23.107-.115c.029-.03.022-.024.008-.006l-.024.036c-.107.2-.018.14.024-.053.05-.187.092-.491.106-.82.048-1.365-.221-3.085-.548-4.748-.67-3.371-1.682-6.837-2.683-10.233l2.919-1.281c1.829 3.266 3.354 6.601 4.594 10.219.59 1.831 1.133 3.67 1.291 5.931.03.576.043 1.18-.062 1.886-.11.695-.286 1.526-.919 2.468l-.124.173-.098.127-.115.14-.232.282-.464.563c-.313.371-.61.763-.944 1.11a53.417 53.417 0 0 1-8.55 7.629 60.165 60.165 0 0 1-4.722 3.149c-.81.49-1.629.96-2.463 1.416-.844.47-1.647.878-2.605 1.327l-2.73-5.828z" fill="#FFB570" mask="url(#b)"/>
            <path d="M260.338 264.996c-1.095.219-1.92.181-2.239-.11-.135-.123-.185-.297-.153-.53.018-.125.077-.167.125-.189.385-.175 1.488.358 2.267.829m-1.24.439c.582 0 1.217-.12 1.661-.226a.15.15 0 0 0 .114-.12.148.148 0 0 0-.066-.15c-.215-.142-2.126-1.375-2.86-1.044a.509.509 0 0 0-.296.42c-.046.333.036.6.247.791.269.245.716.329 1.2.329" fill="#4A4E4F" mask="url(#b)"/>
            <path d="M259.655 262.661c.122 0 .23.044.33.13.407.363.548 1.38.583 1.983-.6-.478-1.313-1.498-1.226-1.93.013-.07.055-.155.245-.178a.476.476 0 0 1 .068-.005m1.07 2.552a.15.15 0 0 0 .148-.149c.001-.077-.007-1.89-.691-2.495a.773.773 0 0 0-.631-.2c-.373.046-.474.28-.501.416-.143.71 1.001 2.068 1.603 2.408.022.014.047.02.073.02" fill="#4A4E4F" mask="url(#b)"/>
            <path d="M260.172 69.972c-.733 3.735-2.275 11.3.338 13.792 0 0-1.02 3.788-7.961 3.788-7.631 0-3.647-3.788-3.647-3.788 4.165-.994 4.057-4.085 3.332-6.987l7.938-6.805z" fill="#FFB570" mask="url(#b)"/>
            <path d="M247.443 85.27c-1.198.161-.178-2.942.308-3.263 1.124-.743 15.669-1.796 15.574-.03-.06.76-.417 2.241-1.053 2.745-.636.504-4.373-1.018-14.829.547" fill="#1A2E35" mask="url(#b)"/>
            <path d="M249.813 84.225c-.952.321-.862-2.805-.537-3.182.749-.87 12.522-3.895 12.871-2.183.135.739.2 2.215-.204 2.787-.404.573-3.863-.374-12.13 2.578" fill="#1A2E35" mask="url(#b)"/>
            <path d="M245.434 63.24a.3.3 0 0 1-.249-.11c-.841-1.03-1.935-.924-1.946-.922a.298.298 0 1 1-.064-.594c.057-.005 1.428-.138 2.472 1.139a.297.297 0 0 1-.213.486" fill="#313435" mask="url(#b)"/>
            <path d="M243.978 66.916s-.644 2.26-1.485 3.402c.729.557 1.835.161 1.835.161l-.35-3.563z" fill="#FFB570" mask="url(#b)"/>
            <path d="M244.344 66.004c.05.505-.177.94-.508.973-.33.033-.638-.35-.687-.856-.05-.505.177-.941.507-.974.33-.032.639.351.688.857" fill="#313435" mask="url(#b)"/>
            <path d="m243.805 65.161-1.248-.23s.716.886 1.248.23" fill="#313435" mask="url(#b)"/>
            <path fill="#FFB570" mask="url(#b)" d="M268.045 265.064h-6.294l.494-14.576h6.294z"/>
            <path d="M261.252 264.335h7.072c.257 0 .466.179.502.43l.806 5.595c.084.58-.416 1.13-1.009 1.12-2.465-.043-3.654-.188-6.764-.188-1.912 0-4.708.2-7.35.2-2.584 0-2.783-2.614-1.682-2.85 4.932-1.06 5.711-2.524 7.373-3.92.3-.251.676-.387 1.052-.387" fill="#313435" mask="url(#b)"/>
            <path fill="#000" mask="url(#b)" d="M268.54 250.491h-6.297l-.251 7.513h6.297z"/>
            <path d="M243.002 92.498a123.26 123.26 0 0 1-11.31-5.076c-3.693-1.89-7.33-3.902-10.824-6.593a24.75 24.75 0 0 1-2.572-2.307c-.209-.224-.418-.434-.625-.692-.216-.272-.38-.432-.66-.85a5.987 5.987 0 0 1-1.005-2.712 6.114 6.114 0 0 1 .369-2.72 8.25 8.25 0 0 1 1.057-1.96c.79-1.1 1.665-1.913 2.546-2.645 1.761-1.457 3.624-2.517 5.488-3.507.933-.495 1.883-.94 2.844-1.35.967-.418 1.91-.805 2.935-1.159l1.334 2.896c-3.277 2.066-6.673 4.337-9.168 6.883-.606.63-1.137 1.29-1.471 1.872-.358.59-.354 1.034-.293 1 .032-.002.019-.014.106.072l.3.322c.112.134.27.272.413.41.59.55 1.281 1.104 2.028 1.63 1.492 1.06 3.135 2.054 4.835 2.982a99.723 99.723 0 0 0 5.21 2.695 220.699 220.699 0 0 0 10.816 4.82l-2.353 5.99z" fill="#FFB570" mask="url(#b)"/>
            <path d="m234.431 61.77 1.042-2.257-4.732-1.642s-1.473 4.435.283 6.482a4.54 4.54 0 0 0 3.407-2.582M235.473 54.634l-3.783-1.09-.949 4.327 4.732 1.642zM284.314 59.733l.55-5.276-4.874 1.146s-.072 4.945 2.508 5.733l1.816-1.603z" fill="#FFB570" mask="url(#b)"/>
            <path fill="#FFB570" mask="url(#b)" d="m282.516 50.764-3.176 1.484.65 3.355 4.875-1.146zM261.162 62.598c.23 6.243.46 8.88-2.361 12.374-4.243 5.254-11.961 4.17-14.05-1.878-1.883-5.444-1.941-14.738 3.89-17.805 5.745-3.022 12.292 1.066 12.52 7.31"/>
            <path d="M258.442 74.96c6.129-2.649 10.16-8.232 8.458-16.964-1.628-8.353-7.267-9.178-9.597-7.445-2.33 1.733-8.136-.85-11.62 2.083-6.038 5.08-.33 10.558 2.643 13.803 1.776 3.651 4.103 11.122 10.116 8.523" fill="#313435" mask="url(#b)"/>
            <path d="M255.898 56.498c2.068 2.994 6.034 3.84 8.86 1.888 2.824-1.951 3.439-5.96 1.37-8.954-2.067-2.994-6.034-3.84-8.86-1.889-2.825 1.951-3.439 5.96-1.37 8.955" fill="#FFC057" mask="url(#b)"/>
            <path d="M257.489 51.136c-.885-5.033 3.878-8.914 10.246-7.04 6.368 1.877 3 7.522 1.695 12.031-1.306 4.51 2.121 8.803 3.553 5.37 1.433-3.434-.975-4.494-.975-4.494s6.762 1.753.48 9.377c-6.282 7.623-11.968-.795-10.431-5.763 1.243-4.015-3.732-4.723-4.568-9.48M251.123 53.038c-2.906-1.516-7.83-2.743-10.633 1.972-1.324 2.23-.81 5.252-.81 5.252l8.558.57 2.885-7.794z" fill="#313435" mask="url(#b)"/>
            <path d="M238.672 58.783h-.012a.188.188 0 0 1-.176-.2c.008-.128.215-3.15 2.04-5.047 4.41-4.582 9.58-.781 11.06.493a.187.187 0 1 1-.245.285c-1.416-1.22-6.363-4.862-10.544-.517-1.728 1.795-1.934 4.78-1.936 4.81a.189.189 0 0 1-.187.176" fill="#313435" mask="url(#b)"/>
            <path d="M249.373 66.19c-.01 1.215-.553 2.406-1.244 3.213-1.038 1.214-2.228.616-2.502-.73-.246-1.212-.002-3.305 1.31-4.038 1.295-.722 2.447.163 2.436 1.554" fill="#FFB570" mask="url(#b)"/>
            <path d="M248.021 123.366s.402 43.694 4.191 68.04c3.062 19.666 8.727 65.144 8.727 65.144h8.584s.838-43.903-.716-63.354c-3.931-49.219 6.216-58.42-1.973-69.83h-18.813z" fill="#1A2E35" mask="url(#b)"/>
            <path d="M248.021 123.366s.402 43.694 4.191 68.04c3.062 19.666 8.727 65.144 8.727 65.144h8.584s.838-43.903-.716-63.354c-3.931-49.219 6.216-58.42-1.973-69.83h-18.813z" fill="#313435" mask="url(#b)"/>
            <path d="M252.532 143.188c3.013 13.189.609 33.958-1.036 43.104-1.744-13.887-2.623-31.884-3.059-45.072 1.556-2.525 3.028-2.69 4.095 1.968" fill="#000" mask="url(#b)"/>
            <path fill="#4A4E4F" mask="url(#b)" d="M259.765 256.72h10.933l.574-3.835-11.57-.392z"/>
            <path d="M262.885 86.485c1.029-2.045 6.556-3.332 9.578-3.327l2.262 10.043s-6.02 8.936-8.524 7.987c-2.957-1.117-5.52-10.323-3.316-14.703" fill="#007CFF" mask="url(#b)"/>
            <path d="M262.885 86.485c1.029-2.045 6.556-3.332 9.578-3.327l2.262 10.043s-6.02 8.936-8.524 7.987c-2.957-1.117-5.52-10.323-3.316-14.703" fill="#FC9C14" mask="url(#b)"/>
            <path d="M253.176 255.419c.257-.422 1.695-.81 2.793-1.012-.991 1.008-1.865 1.569-2.376 1.516-.178-.018-.315-.112-.42-.285-.04-.068-.044-.126-.014-.189.004-.01.01-.02.017-.03m3.336-1.155a.148.148 0 0 0-.149-.225c-.316.047-3.098.488-3.473 1.283a.477.477 0 0 0 .029.47c.152.256.37.4.645.428.91.094 2.227-1.17 2.93-1.933a.102.102 0 0 0 .018-.023" fill="#4A4E4F" mask="url(#b)"/>
            <path d="M253.57 253.318a.78.78 0 0 1 .72-.337c.675.043 1.441.741 1.79 1.097-.89.075-2.334-.195-2.528-.582-.013-.024-.042-.08.018-.178m2.942.946.015-.03a.151.151 0 0 0-.029-.145c-.047-.055-1.161-1.34-2.189-1.406a1.078 1.078 0 0 0-.82.277c-.307.277-.281.517-.204.67.325.645 2.324.87 3.13.702a.154.154 0 0 0 .097-.068" fill="#4A4E4F" mask="url(#b)"/>
            <path fill="#FFB570" mask="url(#b)" d="m263.073 251.598-5.757 2.556-2.566-5.338-3.353-6.992-.392-.812 5.75-2.562.445.915 3.25 6.77z"/>
            <path fill="#000" mask="url(#b)" d="m260.45 246.136-5.7 2.68-3.353-6.992 5.803-2.459z"/>
            <path d="M241.27 123.366s-18.39 45.715-13.406 67.242c4.506 19.456 24.426 56.3 24.426 56.3l7.702-3.866s-12.316-44.477-13.651-54.14c-2.6-18.8 14.108-45.338 14.108-65.536H241.27z" fill="#1A2E35" mask="url(#b)"/>
            <path d="M241.27 123.366s-18.39 45.715-13.406 67.242c4.506 19.456 24.426 56.3 24.426 56.3l7.702-3.866s-12.316-44.477-13.651-54.14c-2.6-18.8 14.108-45.338 14.108-65.536H241.27zM256.288 253.355l5.718-4.162a.497.497 0 0 1 .66.053l3.943 4.049c.41.42.329 1.158-.158 1.499-2.017 1.416-3.063 1.998-5.578 3.828-1.547 1.126-4.629 3.615-6.766 5.17-2.088 1.52-3.787-.474-3.036-1.313 3.363-3.76 4.073-6.086 4.594-8.192.095-.38.319-.71.623-.932" fill="#313435" mask="url(#b)"/>
            <path fill="#4A4E4F" mask="url(#b)" d="m251.793 248.538 9.943-4.547-1.276-4.052-10.647 4.857z"/>
            <path d="M246.15 85.973c-.824-2.135-8.008-4.477-11.612-5.294l-1.583 11.849s5.885 8.458 8.469 7.758c3.052-.826 6.494-9.74 4.726-14.313" fill="#007CFF" mask="url(#b)"/>
            <path d="M246.15 85.973c-.824-2.135-8.008-4.477-11.612-5.294l-1.583 11.849s5.885 8.458 8.469 7.758c3.052-.826 6.494-9.74 4.726-14.313" fill="#FC9C14" mask="url(#b)"/>
            <path d="M238.262 85.376s-2.999 1.056 3.008 37.99h25.565c-.43-10.404-.442-16.82 4.53-38.172 0 0-5.356-1.165-10.855-1.43-4.301-.208-7.826-.345-11.608 0-4.986.455-10.64 1.612-10.64 1.612" fill="#FC9C14" mask="url(#b)"/>
            <path d="m267.217 121.866 1.153 2.288c.09.178-.121.359-.417.359h-26.81c-.23 0-.42-.113-.435-.258l-.23-2.288c-.016-.159.183-.293.435-.293h25.888c.19 0 .358.078.416.192" fill="#007CFF" mask="url(#b)"/>
            <path d="m267.217 121.866 1.153 2.288c.09.178-.121.359-.417.359h-26.81c-.23 0-.42-.113-.435-.258l-.23-2.288c-.016-.159.183-.293.435-.293h25.888c.19 0 .358.078.416.192" fill="#FFC057" mask="url(#b)"/>
            <path d="M263.74 124.76h.693c.138 0 .244-.07.234-.157l-.325-2.973c-.01-.087-.13-.158-.268-.158h-.694c-.138 0-.242.071-.233.158l.325 2.973c.01.087.13.158.268.158M246.935 124.76h.693c.138 0 .243-.07.234-.157l-.325-2.973c-.01-.087-.13-.158-.268-.158h-.694c-.138 0-.243.071-.234.158l.325 2.973c.01.087.13.158.269.158" fill="#1A2E35" mask="url(#b)"/>
        </g>
    </g>
</svg>
